<?xml version="1.0" encoding="utf-8"?>
<!-- Generator: Adobe Illustrator 25.3.1, SVG Export Plug-In . SVG Version: 6.00 Build 0)  -->
<svg version="1.1" id="Capa_1" xmlns="http://www.w3.org/2000/svg" xmlns:xlink="http://www.w3.org/1999/xlink" x="0px" y="0px"
	 viewBox="0 0 50 50" style="enable-background:new 0 0 50 50;" xml:space="preserve">
<style type="text/css">
	.st0{fill:#666265;}
	.st1{fill:#B5B5B5;}
	.st2{fill:#CECCCB;}
	.st3{fill:#F4992E;}
	.st4{fill:#87CCD1;}
	.st5{fill:#EF7D50;}
	.st6{fill:#E5E2E1;}
	.st7{fill:#8ACDD1;}
	.st8{fill:#B3B2B1;}
	.st9{fill:#F49934;}
	.st10{fill:#666264;}
	.st11{fill:#89CCD0;}
	.st12{fill:#F1EFF0;}
	.st13{fill:#FFD200;}
	.st14{fill:#F4982D;}
	.st15{fill:#EF7C4F;}
	.st16{fill:#00ACB5;}
	.st17{fill:#F2CA12;}
	.st18{fill:#F3B873;}
	.st19{fill:#BAE1EB;}
	.st20{fill:#909192;}
	.st21{fill:#DFDCDC;}
	.st22{fill:none;stroke:#DFDCDC;stroke-width:1.4418;stroke-linecap:round;stroke-linejoin:round;stroke-miterlimit:10;}
	.st23{fill:none;}
	.st24{fill:#E5E2E2;}
	.st25{fill:#878893;}
	.st26{fill:#919293;}
	.st27{fill:#B7DFE3;}
	.st28{fill:#B5B4B4;}
	.st29{clip-path:url(#SVGID_2_);}
	.st30{fill:#828181;}
	.st31{fill:#ED6A36;}
	.st32{fill:#F4F2F3;}
	.st33{fill:#E6E3E3;}
	.st34{fill:#FFFFFF;}
	.st35{fill:#BEBFC0;}
	.st36{fill:#DBD8D7;}
	.st37{fill:#FCC637;}
	.st38{fill:#F28F7D;}
	.st39{fill:#50494E;}
	.st40{fill:#9B9C9C;}
	.st41{fill:#EC6824;}
	.st42{fill:#F18622;}
	.st43{fill:#E73B33;}
	.st44{fill:#E62C2F;}
	.st45{fill:#87CCD1;stroke:#87CCD1;stroke-width:0.2384;stroke-miterlimit:10;}
	.st46{fill:#E99534;}
	.st47{fill:url(#SVGID_3_);}
	.st48{fill:url(#SVGID_4_);}
	.st49{fill:url(#SVGID_5_);}
	.st50{opacity:0.1;fill:#2B2123;enable-background:new    ;}
	.st51{fill:#82C3C8;}
	.st52{fill:url(#SVGID_6_);}
	.st53{fill:url(#SVGID_7_);}
	.st54{fill:url(#SVGID_8_);}
	.st55{fill:#84C3C7;}
	.st56{fill:#00A3AB;}
	.st57{fill:#D0CECE;}
	.st58{opacity:0.15;}
	.st59{fill:#393235;}
	.st60{fill:#DDDADA;}
	.st61{fill:#F1872D;}
	.st62{fill:#9CD4D8;}
	.st63{fill:#E37E18;}
	.st64{fill:#F59A20;}
</style>
<g>
	<path class="st24" d="M46.86,8.83c-0.11-0.51-0.78-0.71-1.15-0.34L41.5,12.7c-0.26,0.26-0.7,0.26-0.96,0L37.3,9.47
		c-0.26-0.26-0.26-0.7,0-0.96l4.21-4.21c0.38-0.38,0.18-1.04-0.34-1.15c-2.48-0.54-5.04,0.21-6.83,2c-1.97,1.97-2.66,4.85-1.84,7.48
		L4.61,37.37c-0.99,0.86-1.59,2.13-1.64,3.45c-0.05,1.32,0.46,2.62,1.4,3.55l1.27,1.27c0.73,0.73,1.69,1.2,2.71,1.35
		c1.01,0.15,2.05-0.05,2.96-0.54c0.5-0.28,0.95-0.63,1.33-1.05L37.38,17.5c2.63,0.83,5.51,0.13,7.48-1.84
		C46.65,13.87,47.4,11.31,46.86,8.83z M9.8,42.38c-0.59,0.59-1.54,0.59-2.13,0c-0.59-0.59-0.59-1.54,0-2.13
		c0.29-0.29,0.68-0.44,1.07-0.44s0.78,0.15,1.07,0.44C10.39,40.84,10.39,41.79,9.8,42.38z"/>
	<path class="st3" d="M27.17,24.43l-1.59-1.59c-0.25-0.25-0.66-0.26-0.93-0.04L8.97,36.48c-0.43,0.38-0.21,1.1,0.34,1.19
		c0.78,0.13,1.48,0.48,2.03,1.04c0.54,0.54,0.89,1.22,1.03,1.97c0.1,0.55,0.81,0.75,1.19,0.33l13.63-15.64
		C27.43,25.09,27.42,24.68,27.17,24.43z"/>
	<path class="st2" d="M30.51,27.74l-19.4-19.4c-0.13-0.13-0.3-0.2-0.49-0.2c-0.19,0-0.35,0.08-0.49,0.2l-1.8,1.8
		c-0.13,0.13-0.2,0.3-0.2,0.49c0,0.19,0.08,0.35,0.2,0.49l19.4,19.4c0.26,0.26,0.7,0.26,0.96,0l1.8-1.8
		C30.77,28.44,30.77,28,30.51,27.74z"/>
	<path class="st1" d="M11.11,8.34c-0.13-0.13-0.3-0.2-0.49-0.2c-0.19,0-0.35,0.08-0.49,0.2l-1.8,1.8c-0.13,0.13-0.2,0.3-0.2,0.49
		c0,0.19,0.08,0.35,0.2,0.49l3.17,3.17l2.77-2.77L11.11,8.34z"/>
	<path class="st2" d="M6.12,11.12l4,1.68l2.71-2.71l-1.68-4c-0.06-0.15-0.18-0.28-0.31-0.34L5.54,3.05
		C5.28,2.91,4.95,2.96,4.75,3.18L3.2,4.73C2.98,4.94,2.93,5.26,3.07,5.52l2.71,5.29C5.84,10.95,5.96,11.06,6.12,11.12z"/>
	<path class="st4" d="M45.97,37.79L34.86,26.67c-0.11-0.11-0.26-0.19-0.43-0.2l-3.36-0.26c-0.2-0.01-0.4,0.06-0.54,0.2l-4.12,4.12
		c-0.14,0.14-0.21,0.34-0.2,0.54l0.26,3.36c0.01,0.16,0.09,0.31,0.2,0.43l11.11,11.11c0.65,0.65,1.5,1,2.42,1
		c0.91,0,1.77-0.35,2.42-1l3.36-3.36c0.65-0.65,1-1.5,1-2.42C46.98,39.29,46.62,38.44,45.97,37.79z"/>
	<path class="st4" d="M26.48,34.43c0.01,0.16,0.09,0.31,0.2,0.43l11.11,11.11c0.65,0.65,1.5,1,2.42,1c0.53,0,1.04-0.13,1.5-0.35
		L26.23,31.14L26.48,34.43z"/>
	<path class="st5" d="M34.86,26.67c-0.11-0.11-0.26-0.19-0.43-0.2l-3.36-0.26c-0.2-0.01-0.4,0.06-0.54,0.2l-4.12,4.12
		c-0.14,0.14-0.21,0.34-0.2,0.54l0.26,3.36c0.01,0.16,0.09,0.31,0.2,0.43l0.45,0.45l8.19-8.19L34.86,26.67z"/>
	<path class="st5" d="M26.23,31.14l0.25,3.28c0.01,0.16,0.09,0.31,0.2,0.43l0.45,0.45l1.63-1.63L26.23,31.14z"/>
	<path class="st5" d="M43.18,39.63l-8.38-8.38c-0.39-0.39-0.9-0.6-1.45-0.6s-1.07,0.21-1.45,0.6l-0.64,0.64
		c-0.39,0.39-0.6,0.9-0.6,1.45s0.21,1.07,0.6,1.45l8.38,8.38c0.39,0.39,0.9,0.6,1.45,0.6s1.07-0.21,1.45-0.6l0.64-0.64
		c0.39-0.39,0.6-0.9,0.6-1.45C43.78,40.53,43.57,40.02,43.18,39.63z"/>
	<g>
		<path class="st3" d="M34.24,34.93c-0.18,0-0.35-0.06-0.49-0.2l-0.26-0.26c-0.26-0.26-0.26-0.7,0-0.96c0.26-0.26,0.7-0.26,0.96,0
			l0.26,0.26c0.26,0.26,0.26,0.7,0,0.96C34.6,34.87,34.42,34.93,34.24,34.93z"/>
		<path class="st3" d="M36.31,37c-0.18,0-0.35-0.06-0.49-0.2l-0.26-0.26c-0.26-0.26-0.26-0.7,0-0.96c0.26-0.26,0.7-0.26,0.96,0
			l0.26,0.26c0.26,0.26,0.26,0.7,0,0.96C36.66,36.92,36.49,37,36.31,37z"/>
		<path class="st3" d="M38.38,39.05c-0.18,0-0.35-0.06-0.49-0.2l-0.26-0.26c-0.26-0.26-0.26-0.7,0-0.96c0.26-0.26,0.7-0.26,0.96,0
			l0.26,0.26c0.26,0.26,0.26,0.7,0,0.96C38.73,38.99,38.55,39.05,38.38,39.05z"/>
		<path class="st3" d="M40.43,41.12c-0.18,0-0.35-0.06-0.49-0.2l-0.26-0.26c-0.26-0.26-0.26-0.7,0-0.96c0.26-0.26,0.7-0.26,0.96,0
			l0.26,0.26c0.26,0.26,0.26,0.7,0,0.96C40.79,41.06,40.61,41.12,40.43,41.12z"/>
	</g>
</g>
</svg>
