<?xml version="1.0" encoding="utf-8"?>
<!-- Generator: Adobe Illustrator 25.3.1, SVG Export Plug-In . SVG Version: 6.00 Build 0)  -->
<svg version="1.1" id="Capa_1" xmlns="http://www.w3.org/2000/svg" xmlns:xlink="http://www.w3.org/1999/xlink" x="0px" y="0px"
	 viewBox="0 0 50 50" style="enable-background:new 0 0 50 50;" xml:space="preserve">
<style type="text/css">
	.st0{fill:#666265;}
	.st1{fill:#B5B5B5;}
	.st2{fill:#CECCCB;}
	.st3{fill:#F4992E;}
	.st4{fill:#87CCD1;}
	.st5{fill:#EF7D50;}
	.st6{fill:#E5E2E1;}
	.st7{fill:#8ACDD1;}
	.st8{fill:#B3B2B1;}
	.st9{fill:#F49934;}
	.st10{fill:#666264;}
	.st11{fill:#89CCD0;}
	.st12{fill:#F1EFF0;}
	.st13{fill:#FFD200;}
	.st14{fill:#F4982D;}
	.st15{fill:#EF7C4F;}
	.st16{fill:#00ACB5;}
	.st17{fill:#F2CA12;}
	.st18{fill:#F3B873;}
	.st19{fill:#BAE1EB;}
	.st20{fill:#909192;}
	.st21{fill:#DFDCDC;}
	.st22{fill:none;stroke:#DFDCDC;stroke-width:1.4418;stroke-linecap:round;stroke-linejoin:round;stroke-miterlimit:10;}
	.st23{fill:none;}
	.st24{fill:#E5E2E2;}
	.st25{fill:#878893;}
	.st26{fill:#919293;}
	.st27{fill:#B7DFE3;}
	.st28{fill:#B5B4B4;}
	.st29{clip-path:url(#SVGID_2_);}
	.st30{fill:#828181;}
	.st31{fill:#ED6A36;}
	.st32{fill:#F4F2F3;}
	.st33{fill:#E6E3E3;}
	.st34{fill:#FFFFFF;}
	.st35{fill:#BEBFC0;}
	.st36{fill:#DBD8D7;}
	.st37{fill:#FCC637;}
	.st38{fill:#F28F7D;}
	.st39{fill:#50494E;}
	.st40{fill:#9B9C9C;}
	.st41{fill:#EC6824;}
	.st42{fill:#F18622;}
	.st43{fill:#E73B33;}
	.st44{fill:#E62C2F;}
	.st45{fill:#87CCD1;stroke:#87CCD1;stroke-width:0.2384;stroke-miterlimit:10;}
	.st46{fill:#E99534;}
	.st47{fill:url(#SVGID_3_);}
	.st48{fill:url(#SVGID_4_);}
	.st49{fill:url(#SVGID_5_);}
	.st50{opacity:0.1;fill:#2B2123;enable-background:new    ;}
	.st51{fill:#82C3C8;}
	.st52{fill:url(#SVGID_6_);}
	.st53{fill:url(#SVGID_7_);}
	.st54{fill:url(#SVGID_8_);}
	.st55{fill:#84C3C7;}
	.st56{fill:#00A3AB;}
	.st57{fill:#D0CECE;}
	.st58{opacity:0.15;}
	.st59{fill:#393235;}
	.st60{fill:#DDDADA;}
	.st61{fill:#F1872D;}
	.st62{fill:#9CD4D8;}
	.st63{fill:#E37E18;}
	.st64{fill:#F59A20;}
</style>
<g>
	<polygon class="st3" points="1.53,36.57 1.53,48.49 15.94,48.49 15.94,40.37 15.94,40.37 15.94,40.47 12.12,36.57 	"/>
	<polygon class="st5" points="4.96,48.49 4.96,40.68 10.69,40.68 12.53,42.52 12.53,48.49 	"/>
	<polygon class="st24" points="10.71,3.42 12.25,1.51 1.53,1.51 1.53,36.57 12.12,36.57 15.94,40.37 15.94,35.4 15.94,35.4 
		14.06,33.9 15.57,32.02 13.68,30.52 15.2,28.63 13.31,27.12 14.83,25.25 12.94,23.74 14.45,21.86 12.57,20.36 14.08,18.47 
		12.2,16.96 13.71,15.09 11.83,13.58 13.34,11.69 11.46,10.2 12.97,8.31 11.08,6.8 12.6,4.93 	"/>
	<path class="st1" d="M34.11,46.64v-19.5c0-0.99-0.81-1.82-1.82-1.82h-4.54c-0.99,0-1.82,0.81-1.82,1.82v19.5
		c0,0.99,0.81,1.82,1.82,1.82h4.54C33.3,48.45,34.11,47.64,34.11,46.64z"/>
	<rect x="27.26" y="15.7" class="st24" width="5.54" height="9.62"/>
	<path class="st4" d="M19.24,16.58h-2.39v-2.85c0-3.9,3.16-7.06,7.06-7.06l0,0h8.89l0.36,1.23h1.78l0.72-1.23h3.79v7.8h-3.79
		l-0.72-1.23h-1.78l-0.36,2.48h-5.54l0,0c0-1.29-1.05-2.33-2.33-2.33h-2.48C20.68,13.37,19.24,14.8,19.24,16.58L19.24,16.58z"/>
	<polygon class="st25" points="38.88,21.06 38.88,22.93 41.16,25.21 41.16,36.37 43.68,41.85 46.18,36.37 46.18,25.21 48.47,22.93 
		48.47,21.06 	"/>
</g>
</svg>
