<?xml version="1.0" encoding="utf-8"?>
<!-- Generator: Adobe Illustrator 25.3.1, SVG Export Plug-In . SVG Version: 6.00 Build 0)  -->
<svg version="1.1" id="Capa_1" xmlns="http://www.w3.org/2000/svg" xmlns:xlink="http://www.w3.org/1999/xlink" x="0px" y="0px"
	 viewBox="0 0 50 50" style="enable-background:new 0 0 50 50;" xml:space="preserve">
<style type="text/css">
	.st0{fill:#666265;}
	.st1{fill:#B5B5B5;}
	.st2{fill:#CECCCB;}
	.st3{fill:#F4992E;}
	.st4{fill:#87CCD1;}
	.st5{fill:#EF7D50;}
	.st6{fill:#E5E2E1;}
	.st7{fill:#8ACDD1;}
	.st8{fill:#B3B2B1;}
	.st9{fill:#F49934;}
	.st10{fill:#666264;}
	.st11{fill:#89CCD0;}
	.st12{fill:#F1EFF0;}
	.st13{fill:#FFD200;}
	.st14{fill:#F4982D;}
	.st15{fill:#EF7C4F;}
	.st16{fill:#00ACB5;}
	.st17{fill:#F2CA12;}
	.st18{fill:#F3B873;}
	.st19{fill:#BAE1EB;}
	.st20{fill:#909192;}
	.st21{fill:#DFDCDC;}
	.st22{fill:none;stroke:#DFDCDC;stroke-width:1.4418;stroke-linecap:round;stroke-linejoin:round;stroke-miterlimit:10;}
	.st23{fill:none;}
	.st24{fill:#E5E2E2;}
	.st25{fill:#878893;}
	.st26{fill:#919293;}
	.st27{fill:#B7DFE3;}
	.st28{fill:#B5B4B4;}
	.st29{clip-path:url(#SVGID_2_);}
	.st30{fill:#828181;}
	.st31{fill:#ED6A36;}
	.st32{fill:#F4F2F3;}
	.st33{fill:#E6E3E3;}
	.st34{fill:#FFFFFF;}
	.st35{fill:#BEBFC0;}
	.st36{fill:#DBD8D7;}
	.st37{fill:#FCC637;}
	.st38{fill:#F28F7D;}
	.st39{fill:#50494E;}
	.st40{fill:#9B9C9C;}
	.st41{fill:#EC6824;}
	.st42{fill:#F18622;}
	.st43{fill:#E73B33;}
	.st44{fill:#E62C2F;}
	.st45{fill:#87CCD1;stroke:#87CCD1;stroke-width:0.2384;stroke-miterlimit:10;}
	.st46{fill:#E99534;}
	.st47{fill:url(#SVGID_3_);}
	.st48{fill:url(#SVGID_4_);}
	.st49{fill:url(#SVGID_5_);}
	.st50{opacity:0.1;fill:#2B2123;enable-background:new    ;}
	.st51{fill:#82C3C8;}
	.st52{fill:url(#SVGID_6_);}
	.st53{fill:url(#SVGID_7_);}
	.st54{fill:url(#SVGID_8_);}
	.st55{fill:#84C3C7;}
	.st56{fill:#00A3AB;}
	.st57{fill:#D0CECE;}
	.st58{opacity:0.15;}
	.st59{fill:#393235;}
	.st60{fill:#DDDADA;}
	.st61{fill:#F1872D;}
	.st62{fill:#9CD4D8;}
	.st63{fill:#E37E18;}
	.st64{fill:#F59A20;}
</style>
<g>
	<path class="st0" d="M29.17,14.63H21.2c-0.4,0-0.71,0.32-0.71,0.71c0,0.4,0.32,0.71,0.71,0.71h3.08v5.73c0,0.4,0.32,0.71,0.71,0.71
		c0.4,0,0.71-0.32,0.71-0.71v-5.73h3.45c0.4,0,0.71-0.32,0.71-0.71C29.88,14.94,29.56,14.63,29.17,14.63z"/>
	<g>
		<path class="st31" d="M28.98,12.72c-1.44,0-2.61,1.16-2.61,2.61s1.16,2.61,2.61,2.61c1.44,0,2.61-1.16,2.61-2.61
			S30.41,12.72,28.98,12.72z"/>
		<path class="st31" d="M21.02,12.72c-1.44,0-2.61,1.16-2.61,2.61s1.16,2.61,2.61,2.61c1.44,0,2.61-1.16,2.61-2.61
			S22.46,12.72,21.02,12.72z"/>
	</g>
	<path id="SVGCleanerId_0_5_" class="st37" d="M45.7,2.12h-5.73c-0.4,0-0.71,0.32-0.71,0.71v16.11c0,1.18-0.95,2.13-2.13,2.13H12.82
		c-5.09,0-9.23,4.14-9.23,9.23v16.68c0,0.4,0.32,0.71,0.71,0.71h5.73c0.4,0,0.71-0.32,0.71-0.71V30.3c0-1.18,0.95-2.13,2.13-2.13
		h24.29c5.09,0,9.23-4.14,9.23-9.23V2.83C46.41,2.43,46.09,2.12,45.7,2.12z"/>
	<g>
		<path id="SVGCleanerId_0_4_" class="st2" d="M45.7,2.12h-5.73c-0.4,0-0.71,0.32-0.71,0.71v16.11c0,1.18-0.95,2.13-2.13,2.13H12.82
			c-5.09,0-9.23,4.14-9.23,9.23v16.68c0,0.4,0.32,0.71,0.71,0.71h5.73c0.4,0,0.71-0.32,0.71-0.71V30.3c0-1.18,0.95-2.13,2.13-2.13
			h24.29c5.09,0,9.23-4.14,9.23-9.23V2.83C46.41,2.43,46.09,2.12,45.7,2.12z"/>
	</g>
	<g>
		<path class="st3" d="M21.97,19.31H19.7c-0.4,0-0.71,0.32-0.71,0.71v9.1c0,0.4,0.32,0.71,0.71,0.71h2.27c0.4,0,0.71-0.32,0.71-0.71
			v-9.1C22.67,19.62,22.36,19.31,21.97,19.31z"/>
		<path class="st3" d="M30.3,19.31h-2.27c-0.4,0-0.71,0.32-0.71,0.71v9.1c0,0.4,0.32,0.71,0.71,0.71h2.27c0.4,0,0.71-0.32,0.71-0.71
			v-9.1C31.02,19.62,30.7,19.31,30.3,19.31z"/>
		<path class="st3" d="M47.4,4.96h-9.1c-0.4,0-0.71,0.32-0.71,0.71v2.27c0,0.4,0.32,0.71,0.71,0.71h9.1c0.4,0,0.71-0.32,0.71-0.71
			V5.67C48.12,5.28,47.8,4.96,47.4,4.96z"/>
		<path class="st3" d="M11.7,41.14H2.6c-0.4,0-0.71,0.32-0.71,0.71v2.27c0,0.4,0.32,0.71,0.71,0.71h9.1c0.4,0,0.71-0.32,0.71-0.71
			v-2.27C12.4,41.46,12.08,41.14,11.7,41.14z"/>
	</g>
	<g>
		<path class="st38" d="M48.12,5.67c0-0.4-0.32-0.71-0.71-0.71h-0.99v3.69h0.99c0.4,0,0.71-0.32,0.71-0.71"/>
	</g>
	<path class="st4" d="M25.57,30.64c-0.28-0.38-0.87-0.38-1.15,0c-0.58,0.79-5.63,7.85-5.63,11.03c0,3.42,2.78,6.2,6.2,6.2
		s6.2-2.78,6.2-6.2C31.2,38.49,26.15,31.43,25.57,30.64z"/>
	<path class="st4" d="M27.04,46.22c-3.42,0-6.2-2.78-6.2-6.2c0-2.42,2.94-7.09,4.59-9.52c-0.32-0.22-0.77-0.16-0.99,0.16
		c-0.58,0.79-5.63,7.85-5.63,11.03c0,3.42,2.78,6.2,6.2,6.2c1.96,0,3.7-0.91,4.84-2.33C28.99,45.97,28.04,46.22,27.04,46.22z"/>
</g>
</svg>
