<?xml version="1.0" encoding="utf-8"?>
<!-- Generator: Adobe Illustrator 25.3.1, SVG Export Plug-In . SVG Version: 6.00 Build 0)  -->
<svg version="1.1" id="Capa_1" xmlns="http://www.w3.org/2000/svg" xmlns:xlink="http://www.w3.org/1999/xlink" x="0px" y="0px"
	 viewBox="0 0 50 50" style="enable-background:new 0 0 50 50;" xml:space="preserve">
<style type="text/css">
	.st0{fill:#666265;}
	.st1{fill:#B5B5B5;}
	.st2{fill:#CECCCB;}
	.st3{fill:#F4992E;}
	.st4{fill:#87CCD1;}
	.st5{fill:#EF7D50;}
	.st6{fill:#E5E2E1;}
	.st7{fill:#8ACDD1;}
	.st8{fill:#B3B2B1;}
	.st9{fill:#F49934;}
	.st10{fill:#666264;}
	.st11{fill:#89CCD0;}
	.st12{fill:#F1EFF0;}
	.st13{fill:#FFD200;}
	.st14{fill:#F4982D;}
	.st15{fill:#EF7C4F;}
	.st16{fill:#00ACB5;}
	.st17{fill:#F2CA12;}
	.st18{fill:#F3B873;}
	.st19{fill:#BAE1EB;}
	.st20{fill:#909192;}
	.st21{fill:#DFDCDC;}
	.st22{fill:none;stroke:#DFDCDC;stroke-width:1.4418;stroke-linecap:round;stroke-linejoin:round;stroke-miterlimit:10;}
	.st23{fill:none;}
	.st24{fill:#E5E2E2;}
	.st25{fill:#878893;}
	.st26{fill:#919293;}
	.st27{fill:#B7DFE3;}
	.st28{fill:#B5B4B4;}
	.st29{clip-path:url(#SVGID_2_);}
	.st30{fill:#828181;}
	.st31{fill:#ED6A36;}
	.st32{fill:#F4F2F3;}
	.st33{fill:#E6E3E3;}
	.st34{fill:#FFFFFF;}
	.st35{fill:#BEBFC0;}
	.st36{fill:#DBD8D7;}
	.st37{fill:#FCC637;}
	.st38{fill:#F28F7D;}
	.st39{fill:#50494E;}
	.st40{fill:#9B9C9C;}
	.st41{fill:#EC6824;}
	.st42{fill:#F18622;}
	.st43{fill:#E73B33;}
	.st44{fill:#E62C2F;}
	.st45{fill:#87CCD1;stroke:#87CCD1;stroke-width:0.2384;stroke-miterlimit:10;}
	.st46{fill:#E99534;}
	.st47{fill:url(#SVGID_3_);}
	.st48{fill:url(#SVGID_4_);}
	.st49{fill:url(#SVGID_5_);}
	.st50{opacity:0.1;fill:#2B2123;enable-background:new    ;}
	.st51{fill:#82C3C8;}
	.st52{fill:url(#SVGID_6_);}
	.st53{fill:url(#SVGID_7_);}
	.st54{fill:url(#SVGID_8_);}
	.st55{fill:#84C3C7;}
	.st56{fill:#00A3AB;}
	.st57{fill:#D0CECE;}
	.st58{opacity:0.15;}
	.st59{fill:#393235;}
	.st60{fill:#DDDADA;}
	.st61{fill:#F1872D;}
	.st62{fill:#9CD4D8;}
	.st63{fill:#E37E18;}
	.st64{fill:#F59A20;}
</style>
<g>
	<path class="st4" d="M5.43,32.53c0,1.31,1.06,2.36,2.36,2.36h0.15c1.31,0,2.36-1.06,2.36-2.36V20.74c0-1.2,0.94-2.22,2.15-2.25
		c1.25-0.04,2.27,0.97,2.27,2.21v5.51c0,1.31,1.06,2.36,2.36,2.36h0.15c1.31,0,2.36-1.06,2.36-2.36V20.7c0-1.22,0.99-2.21,2.21-2.21
		h8.36c1.31,0,2.36-1.06,2.36-2.36V7.3H6.02c-0.33,0-0.59,0.26-0.59,0.59V32.53z"/>
	<path class="st4" d="M7.8,33.71c-0.65,0-1.18-0.53-1.18-1.18V7.89c0-0.33,0.26-0.59,0.59-0.59l24.16,0.01v8.82
		c0,0.65-0.53,1.18-1.18,1.18h-8.36c-1.88,0-3.39,1.52-3.39,3.39v5.51c0,0.65-0.53,1.18-1.18,1.18H17.1c-0.65,0-1.18-0.53-1.18-1.18
		v-5.45c0-1.9-1.55-3.48-3.45-3.45c-1.84,0.04-3.33,1.53-3.33,3.39v11.83c0,0.65-0.53,1.18-1.18,1.18H7.8z"/>
	<path class="st0" d="M24.46,33.66c-0.38,0-0.67-0.31-0.67-0.67V22.56c0-1.85,1.51-3.36,3.36-3.36h14.38c1.11,0,2.02-0.91,2.02-2.02
		v-4.67c0-1.11-0.91-2.02-2.02-2.02h-0.9c-0.38,0-0.67-0.31-0.67-0.67c0-0.38,0.31-0.67,0.67-0.67h0.9c1.85,0,3.36,1.51,3.36,3.36
		v4.67c0,1.85-1.51,3.36-3.36,3.36H27.17c-1.11,0-2.02,0.91-2.02,2.02v10.42C25.14,33.36,24.84,33.66,24.46,33.66z"/>
	<path class="st12" d="M35.65,3.4c-0.01,0-0.02,0-0.05,0L11.17,3.39l0,0c-0.18,0-0.35,0.07-0.47,0.2c-0.13,0.13-0.2,0.3-0.2,0.47
		v10.78c0,0.38,0.31,0.67,0.67,0.67h24.43c0.06,0,0.13-0.01,0.19-0.02c3.1-0.27,5.52-2.9,5.52-6.04C41.31,6.27,38.83,3.62,35.65,3.4
		z"/>
	<path class="st2" d="M11.17,3.39c-3.34,0-6.07,2.71-6.07,6.07s2.71,6.07,6.07,6.07s6.07-2.71,6.07-6.07S14.51,3.39,11.17,3.39z"/>
	<path class="st1" d="M11.17,5.91c-1.96,0-3.55,1.59-3.55,3.55s1.59,3.55,3.55,3.55s3.55-1.59,3.55-3.55S13.13,5.91,11.17,5.91z"/>
	<path class="st3" d="M25.81,32.31h-2.69c-1.11,0-2.02,0.91-2.02,2.02v10.25c0,1.11,0.91,2.02,2.02,2.02h2.69
		c1.11,0,2.02-0.91,2.02-2.02V34.33C27.84,33.22,26.93,32.31,25.81,32.31z"/>
	<path class="st5" d="M21.1,34.34v10.25c0,1.11,0.91,2.02,2.02,2.02V32.31C22.01,32.31,21.1,33.22,21.1,34.34z"/>
	<path class="st4" d="M21.28,12.6c0.77,0,1.48-0.26,2.05-0.7c0.21,1.65,1.63,2.94,3.34,2.94c1.5,0,2.77-0.98,3.21-2.34
		c0.59,0.51,1.36,0.8,2.18,0.8c1.85,0,3.36-1.51,3.36-3.36V3.4L17.91,3.39v5.83C17.91,11.09,19.42,12.6,21.28,12.6z"/>
	<path class="st4" d="M21.28,11.25c1.11,0,2.02-0.91,2.02-2.02V8.88c0-0.37,0.31-0.67,0.67-0.67c0.37,0,0.67,0.31,0.67,0.67v2.61
		c0,1.11,0.91,2.02,2.02,2.02c1.11,0,2.02-0.91,2.02-2.02V7.98c0-0.37,0.31-0.67,0.67-0.67c0.37,0,0.67,0.31,0.67,0.67v1.97
		c0,1.11,0.91,2.02,2.02,2.02c1.11,0,2.02-0.91,2.02-2.02V3.4l-14.8-0.01v5.83C19.26,10.34,20.17,11.25,21.28,11.25z"/>
</g>
</svg>
