<?xml version="1.0" encoding="utf-8"?>
<!-- Generator: Adobe Illustrator 25.3.1, SVG Export Plug-In . SVG Version: 6.00 Build 0)  -->
<svg version="1.1" id="Capa_1" xmlns="http://www.w3.org/2000/svg" xmlns:xlink="http://www.w3.org/1999/xlink" x="0px" y="0px"
	 viewBox="0 0 50 50" style="enable-background:new 0 0 50 50;" xml:space="preserve">
<style type="text/css">
	.st0{fill:#666265;}
	.st1{fill:#B5B5B5;}
	.st2{fill:#CECCCB;}
	.st3{fill:#F4992E;}
	.st4{fill:#87CCD1;}
	.st5{fill:#EF7D50;}
	.st6{fill:#E5E2E1;}
	.st7{fill:#8ACDD1;}
	.st8{fill:#B3B2B1;}
	.st9{fill:#F49934;}
	.st10{fill:#666264;}
	.st11{fill:#89CCD0;}
	.st12{fill:#F1EFF0;}
	.st13{fill:#FFD200;}
	.st14{fill:#F4982D;}
	.st15{fill:#EF7C4F;}
	.st16{fill:#00ACB5;}
	.st17{fill:#F2CA12;}
	.st18{fill:#F3B873;}
	.st19{fill:#BAE1EB;}
	.st20{fill:#909192;}
	.st21{fill:#DFDCDC;}
	.st22{fill:none;stroke:#DFDCDC;stroke-width:1.4418;stroke-linecap:round;stroke-linejoin:round;stroke-miterlimit:10;}
	.st23{fill:none;}
	.st24{fill:#E5E2E2;}
	.st25{fill:#878893;}
	.st26{fill:#919293;}
	.st27{fill:#B7DFE3;}
	.st28{fill:#B5B4B4;}
	.st29{clip-path:url(#SVGID_2_);}
	.st30{fill:#828181;}
	.st31{fill:#ED6A36;}
	.st32{fill:#F4F2F3;}
	.st33{fill:#E6E3E3;}
	.st34{fill:#FFFFFF;}
	.st35{fill:#BEBFC0;}
	.st36{fill:#DBD8D7;}
	.st37{fill:#FCC637;}
	.st38{fill:#F28F7D;}
	.st39{fill:#50494E;}
	.st40{fill:#9B9C9C;}
	.st41{fill:#EC6824;}
	.st42{fill:#F18622;}
	.st43{fill:#E73B33;}
	.st44{fill:#E62C2F;}
	.st45{fill:#87CCD1;stroke:#87CCD1;stroke-width:0.2384;stroke-miterlimit:10;}
	.st46{fill:#E99534;}
	.st47{fill:url(#SVGID_3_);}
	.st48{fill:url(#SVGID_4_);}
	.st49{fill:url(#SVGID_5_);}
	.st50{opacity:0.1;fill:#2B2123;enable-background:new    ;}
	.st51{fill:#82C3C8;}
	.st52{fill:url(#SVGID_6_);}
	.st53{fill:url(#SVGID_7_);}
	.st54{fill:url(#SVGID_8_);}
	.st55{fill:#84C3C7;}
	.st56{fill:#00A3AB;}
	.st57{fill:#D0CECE;}
	.st58{opacity:0.15;}
	.st59{fill:#393235;}
	.st60{fill:#DDDADA;}
	.st61{fill:#F1872D;}
	.st62{fill:#9CD4D8;}
	.st63{fill:#E37E18;}
	.st64{fill:#F59A20;}
</style>
<g>
	<g>
		
			<rect x="26.28" y="20.15" transform="matrix(0.7067 -0.7075 0.7075 0.7067 -6.4254 25.7)" class="st35" width="3.01" height="0.91"/>
		<path class="st35" d="M24.89,20.11l-0.51-0.74c1.16-0.79,2.18-1.31,3.05-1.56l0.24,0.87C26.91,18.89,25.97,19.36,24.89,20.11z"/>
		
			<rect x="14.89" y="25.7" transform="matrix(0.7071 -0.7071 0.7071 0.7071 -12.2989 23.2565)" class="st3" width="14.07" height="1.56"/>
		<path class="st35" d="M30.95,25.92l-0.74-0.51c0.74-1.08,1.22-2.02,1.44-2.79l0.87,0.24C32.27,23.74,31.75,24.76,30.95,25.92z"/>
		<path class="st5" d="M13.84,33.22l-0.62-0.62c-0.02-0.1,0.03-0.3,0.16-0.57l-0.03-0.02l0.05,0.02c1.16-2.46,8.04-11.2,11.35-13.39
			l0.86,1.29c-4.14,2.75-10.56,12.34-10.94,12.91l0,0l0,0c-0.01,0.01-0.01,0.02-0.01,0.02l-0.01-0.01L13.84,33.22z"/>
		<path class="st4" d="M17.74,37.09c-0.01,0-0.03,0-0.05,0l-0.62-0.62l0.36-0.79l-0.01-0.02c0,0,0.01-0.01,0.02-0.02l0,0
			c0.6-0.41,10.16-6.79,12.91-10.94l1.29,0.86c-2.19,3.31-10.86,10.14-13.36,11.34l-0.41-0.62l0.41,0.62
			c-0.01,0-0.02,0.01-0.03,0.01l0.02,0.05l-0.02-0.05C18.02,37.03,17.85,37.09,17.74,37.09z"/>
		
			<rect x="27.99" y="21.85" transform="matrix(0.7071 -0.7071 0.7071 0.7071 -7.1303 27.385)" class="st35" width="3.01" height="0.91"/>
		
			<rect x="16.59" y="27.39" transform="matrix(0.7071 -0.7071 0.7071 0.7071 -13.0011 24.9543)" class="st13" width="14.07" height="1.56"/>
		<path class="st1" d="M5.17,46.93l-1.89-1.89c-1.57-1.57-1.57-4.11,0-5.68l13.68-13.74l7.57,7.57L10.85,46.93
			C9.28,48.5,6.74,48.5,5.17,46.93z"/>
		<path class="st2" d="M3.41,45.15l-0.12-0.12c-1.57-1.57-1.57-4.11,0-5.68l13.68-13.74l5.78,5.78L9.07,45.15
			C7.5,46.72,4.97,46.72,3.41,45.15z"/>
	</g>
	<polygon class="st3" points="33.56,8.38 30.59,9.18 33.64,1.9 30.2,2.85 28.25,10.23 27.84,11.78 29.32,11.37 32.45,10.5 
		30.1,17.53 34.58,9.58 35.57,7.83 	"/>
	<polygon class="st3" points="42.79,18.09 40.3,16.29 47.9,14.07 44.99,11.98 38.02,15.12 36.56,15.77 37.81,16.66 40.44,18.55 
		33.5,21.14 42.51,19.63 44.48,19.31 	"/>
</g>
</svg>
