<?xml version="1.0" encoding="utf-8"?>
<!-- Generator: Adobe Illustrator 25.3.1, SVG Export Plug-In . SVG Version: 6.00 Build 0)  -->
<svg version="1.1" id="Capa_1" xmlns="http://www.w3.org/2000/svg" xmlns:xlink="http://www.w3.org/1999/xlink" x="0px" y="0px"
	 viewBox="0 0 50 50" style="enable-background:new 0 0 50 50;" xml:space="preserve">
<style type="text/css">
	.st0{fill:#666265;}
	.st1{fill:#B5B5B5;}
	.st2{fill:#CECCCB;}
	.st3{fill:#F4992E;}
	.st4{fill:#87CCD1;}
	.st5{fill:#EF7D50;}
	.st6{fill:#E5E2E1;}
	.st7{fill:#8ACDD1;}
	.st8{fill:#B3B2B1;}
	.st9{fill:#F49934;}
	.st10{fill:#666264;}
	.st11{fill:#89CCD0;}
	.st12{fill:#F1EFF0;}
	.st13{fill:#FFD200;}
	.st14{fill:#F4982D;}
	.st15{fill:#EF7C4F;}
	.st16{fill:#00ACB5;}
	.st17{fill:#F2CA12;}
	.st18{fill:#F3B873;}
	.st19{fill:#BAE1EB;}
	.st20{fill:#909192;}
	.st21{fill:#DFDCDC;}
	.st22{fill:none;stroke:#DFDCDC;stroke-width:1.4418;stroke-linecap:round;stroke-linejoin:round;stroke-miterlimit:10;}
	.st23{fill:none;}
	.st24{fill:#E5E2E2;}
	.st25{fill:#878893;}
	.st26{fill:#919293;}
	.st27{fill:#B7DFE3;}
	.st28{fill:#B5B4B4;}
	.st29{clip-path:url(#SVGID_2_);}
	.st30{fill:#828181;}
	.st31{fill:#ED6A36;}
	.st32{fill:#F4F2F3;}
	.st33{fill:#E6E3E3;}
	.st34{fill:#FFFFFF;}
	.st35{fill:#BEBFC0;}
	.st36{fill:#DBD8D7;}
	.st37{fill:#FCC637;}
	.st38{fill:#F28F7D;}
	.st39{fill:#50494E;}
	.st40{fill:#9B9C9C;}
	.st41{fill:#EC6824;}
	.st42{fill:#F18622;}
	.st43{fill:#E73B33;}
	.st44{fill:#E62C2F;}
	.st45{fill:#87CCD1;stroke:#87CCD1;stroke-width:0.2384;stroke-miterlimit:10;}
	.st46{fill:#E99534;}
	.st47{fill:url(#SVGID_3_);}
	.st48{fill:url(#SVGID_4_);}
	.st49{fill:url(#SVGID_5_);}
	.st50{opacity:0.1;fill:#2B2123;enable-background:new    ;}
	.st51{fill:#82C3C8;}
	.st52{fill:url(#SVGID_6_);}
	.st53{fill:url(#SVGID_7_);}
	.st54{fill:url(#SVGID_8_);}
	.st55{fill:#84C3C7;}
	.st56{fill:#00A3AB;}
	.st57{fill:#D0CECE;}
	.st58{opacity:0.15;}
	.st59{fill:#393235;}
	.st60{fill:#DDDADA;}
	.st61{fill:#F1872D;}
	.st62{fill:#9CD4D8;}
	.st63{fill:#E37E18;}
	.st64{fill:#F59A20;}
</style>
<g id="flat_2_">
	<path class="st5" d="M8.57,2.57h32.29v23.23H8.57V2.57z"/>
	<path class="st60" d="M41.43,2H8.57C8.26,2,8,2.25,8,2.57v23.79c0,0.31,0.25,0.57,0.57,0.57h32.86c0.31,0,0.57-0.25,0.57-0.57V2.57
		C42,2.25,41.74,2,41.43,2z M40.86,12.2h-15.3V6.53h15.3V12.2z M34.63,3.13h6.23V5.4h-6.23V3.13z M16.5,3.13h17V5.4h-17V3.13z
		 M9.14,3.13h6.23V5.4H9.14V3.13z M9.14,6.53h15.3v5.67H9.14V6.53z M9.14,13.33h6.23V19H9.14V13.33z M9.14,20.13h15.3v5.67H9.14
		V20.13z M16.5,19v-5.67h17V19H16.5z M40.86,25.79h-15.3v-5.67h15.3V25.79z M40.86,19h-6.23v-5.67h6.23V19z"/>
	<g>
		<path class="st14" d="M34.63,3.13h6.23V5.4h-6.23V3.13z"/>
		<path class="st14" d="M34.63,13.33h6.23V19h-6.23V13.33z"/>
		<path class="st14" d="M14.8,6.53h9.63v5.67H14.8V6.53z"/>
		<path class="st61" d="M25.57,20.13h15.3v5.74h-15.3V20.13z"/>
		<path class="st14" d="M25.33,20.13h15.54v5.67H25.33V20.13z"/>
	</g>
	<path class="st4" d="M15.94,2v7.91c0,2.83,2.29,5.12,5.12,5.12l0,0h5.07c3.13,0,5.67,2.54,5.67,5.67s-2.54,5.67-5.67,5.67l0.07,0.5
		L8.57,26.93c-0.31,0-0.57-0.25-0.57-0.56c0,0,0,0,0,0V2.57C8,2.25,8.26,2,8.57,2H15.94z"/>
	<g>
		<path class="st16" d="M21.74,22.4h-2.41c-0.31,0-0.57-0.25-0.57-0.57c0-0.31,0.25-0.57,0.57-0.57h2.41c0.31,0,0.57,0.25,0.57,0.57
			C22.31,22.14,22.06,22.4,21.74,22.4z"/>
		<path class="st16" d="M16.5,22.4h-1.13c-0.31,0-0.57-0.25-0.57-0.57c0-0.31,0.25-0.57,0.57-0.57h1.13c0.31,0,0.57,0.25,0.57,0.57
			C17.07,22.14,16.81,22.4,16.5,22.4z"/>
		<path class="st16" d="M22.52,19.56h-5.45c-0.31,0-0.57-0.25-0.57-0.57s0.25-0.57,0.57-0.57h5.45c0.31,0,0.57,0.25,0.57,0.57
			S22.83,19.56,22.52,19.56z"/>
		<path class="st16" d="M14.24,19.56H13.1c-0.31,0-0.57-0.25-0.57-0.57s0.25-0.57,0.57-0.57h1.13c0.31,0,0.57,0.25,0.57,0.57
			S14.55,19.56,14.24,19.56z"/>
	</g>
	<g>
		<path class="st1" d="M23.19,33.5h3.63v3.63h-3.63V33.5z"/>
		<path class="st10" d="M22.28,37.12l-0.61,7.26c-0.15,1.84,1.21,3.45,3.05,3.6C24.82,48,24.91,48,25,48c1.84,0,3.34-1.49,3.34-3.34
			c0-0.09,0-0.18-0.01-0.28l-0.61-7.26H22.28z"/>
		<path class="st2" d="M25,14.46c-1.08,0-2.04,0.69-2.39,1.72l-4.14,12.41c-0.45,1.34-0.1,2.81,0.9,3.81
			c0.7,0.7,1.65,1.09,2.63,1.09h5.98c0.99,0,1.94-0.39,2.63-1.09c1-1,1.35-2.47,0.9-3.81l-4.14-12.41
			C27.04,15.16,26.08,14.46,25,14.46L25,14.46z"/>
		<path class="st60" d="M31.71,29.77c0,2.06-1.67,3.73-3.73,3.73c0,0,0,0,0,0h-1.28c2.06,0,3.72-1.67,3.73-3.72
			c0-0.4-0.06-0.8-0.19-1.18l-4.14-12.41c-0.27-0.81-0.93-1.42-1.75-1.64c0.21-0.06,0.42-0.08,0.64-0.08c1.08,0,2.04,0.69,2.39,1.72
			l4.14,12.41C31.65,28.97,31.71,29.37,31.71,29.77z"/>
	</g>
</g>
</svg>
